<svg width="330" height="150" xmlns="http://www.w3.org/2000/svg" preserveAspectRatio="xMidYMid meet" version="1.0">

 <g>
  <title>Layer 1</title>
  <g id="svg_1" fill="#000000" transform="translate(0 150) scale(0.1 -0.1)">
   <path fill="#FFEBFF" id="svg_2" d="m245,785l0,-260l628,0l627,0l0,260l0,260l-628,0l-627,0l0,-260zm615,-5l0,-240l-297,2l-298,3l-3,238l-2,237l300,0l300,0l0,-240zm618,3l-3,-238l-295,0l-295,0l-3,238l-2,237l300,0l300,0l-2,-237z"/>
   <path fill="#FFEBFF" id="svg_3" d="m430,775l0,-155l30,0c29,0 30,2 30,45c0,45 0,45 35,45c29,0 38,-6 65,-45c25,-36 37,-45 60,-45c17,0 30,3 30,6c0,3 -14,25 -31,49l-32,44l27,23c19,16 29,36 32,63c10,85 -44,125 -168,125l-78,0l0,-155zm168,89c14,-10 22,-26 22,-44c0,-38 -32,-60 -87,-60l-43,0l0,60l0,60l43,0c23,0 53,-7 65,-16z"/>
   <path fill="#FFEBFF" id="svg_4" d="m1050,775l0,-155l30,0c30,0 30,1 30,55l0,55l75,0l75,0l0,-55c0,-52 1,-55 25,-55l25,0l0,155l0,155l-25,0c-23,0 -24,-3 -27,-72l-3,-73l-72,-3l-73,-3l0,76l0,75l-30,0l-30,0l0,-155z"/>
   <path fill="#FFEBFF" id="svg_5" d="m1650,940c0,-82 3,-100 15,-100c10,0 15,10 15,30c0,26 4,30 28,30c19,0 33,-9 47,-30c11,-16 28,-30 38,-30c22,0 22,6 -3,38l-20,25l20,19c26,24 26,72 0,98c-16,16 -33,20 -80,20l-60,0l0,-100zm118,33c3,-27 -1,-33 -22,-39c-45,-11 -61,-2 -64,39l-3,38l43,-3c40,-3 43,-5 46,-35z"/>
   <path fill="#FFEBFF" id="svg_6" d="m1940,940l0,-100l75,0c59,0 75,3 75,15c0,10 -15,15 -57,17c-51,3 -58,6 -61,25c-3,20 2,22 44,25c65,4 70,26 7,30c-44,3 -48,5 -51,31c-3,27 -2,27 52,27c43,0 56,3 56,15c0,12 -14,15 -70,15l-70,0l0,-100z"/>
   <path fill="#FFEBFF" id="svg_7" d="m2220,940c0,-82 3,-100 15,-100c12,0 15,13 15,58l0,57l35,-40l34,-40l25,30c14,17 25,33 26,38c0,4 5,7 10,7c6,0 10,-25 10,-55c0,-42 3,-55 15,-55c12,0 15,18 15,100c0,55 -4,100 -9,100c-5,0 -26,-25 -46,-55c-21,-30 -42,-55 -46,-55c-5,0 -25,25 -46,55c-21,30 -41,54 -45,55c-5,0 -8,-45 -8,-100z"/>
   <path fill="#FFEBFF" id="svg_8" d="m2575,977c22,-40 35,-77 35,-100c0,-30 4,-37 20,-37c17,0 20,7 20,40c0,27 11,57 34,97c29,48 32,59 18,62c-16,3 -25,-6 -56,-61l-18,-33l-24,48c-17,32 -31,47 -44,47c-18,0 -17,-6 15,-63z"/>
   <path fill="#FFEBFF" id="svg_9" d="m1917,783c150,-2 396,-2 545,0c150,1 28,2 -272,2c-300,0 -422,-1 -273,-2z"/>
   <path fill="#FFEBFF" id="svg_10" d="m2023,733c-12,-2 -34,-18 -48,-34c-58,-70 -13,-169 77,-169c51,0 81,18 98,59c34,83 -36,162 -127,144zm79,-50c27,-24 24,-87 -4,-107c-70,-49 -150,41 -93,104c22,24 71,26 97,3z"/>
   <path fill="#FFEBFF" id="svg_11" d="m1650,630c0,-80 3,-100 14,-100c10,0 16,13 18,38l3,37l50,0l50,0l3,-37c2,-25 8,-38 18,-38c11,0 14,20 14,100c0,82 -3,100 -15,100c-11,0 -15,-12 -15,-45l0,-45l-55,0l-55,0l0,45c0,33 -4,45 -15,45c-12,0 -15,-18 -15,-100z"/>
   <path fill="#FFEBFF" id="svg_12" d="m2280,715c0,-10 10,-15 30,-15l30,0l0,-85c0,-78 2,-85 20,-85c18,0 20,7 20,85l0,85l30,0c20,0 30,5 30,15c0,12 -16,15 -80,15c-64,0 -80,-3 -80,-15z"/>
   <path fill="#FFEBFF" id="svg_13" d="m2570,630l0,-100l70,0c56,0 70,3 70,15c0,12 -13,15 -55,15c-52,0 -55,1 -55,25c0,23 4,25 45,25c33,0 45,4 45,15c0,11 -12,15 -45,15c-43,0 -45,1 -45,30c0,30 1,30 55,30c42,0 55,3 55,15c0,12 -14,15 -70,15l-70,0l0,-100z"/>
   <path fill="#FFEBFF" id="svg_14" d="m2840,630l0,-100l70,0c56,0 70,3 70,15c0,11 -12,15 -50,15l-50,0l0,85c0,78 -2,85 -20,85c-19,0 -20,-7 -20,-100z"/>
  </g>
 </g>
</svg>