<?xml version="1.0" standalone="no"?>
<!DOCTYPE svg PUBLIC "-//W3C//DTD SVG 20010904//EN"
 "http://www.w3.org/TR/2001/REC-SVG-20010904/DTD/svg10.dtd">
<svg version="1.0" xmlns="http://www.w3.org/2000/svg"
 width="132.000000pt" height="63.000000pt" viewBox="0 0 132.000000 63.000000"
 preserveAspectRatio="xMidYMid meet">

<g transform="translate(0.000000,63.000000) scale(0.100000,-0.100000)"
fill="#000000" stroke="none">
<path d="M55 305 l0 -260 628 0 627 0 0 260 0 260 -628 0 -627 0 0 -260z m615
-5 l0 -240 -297 2 -298 3 -3 238 -2 237 300 0 300 0 0 -240z m618 3 l-3 -238
-295 0 -295 0 -3 238 -2 237 300 0 300 0 -2 -237z"/>
<path d="M240 295 l0 -155 30 0 c29 0 30 2 30 45 0 45 0 45 35 45 29 0 38 -6
65 -45 25 -36 37 -45 60 -45 17 0 30 3 30 6 0 3 -14 25 -31 49 l-32 44 27 23
c19 16 29 36 32 63 10 85 -44 125 -168 125 l-78 0 0 -155z m168 89 c14 -10 22
-26 22 -44 0 -38 -32 -60 -87 -60 l-43 0 0 60 0 60 43 0 c23 0 53 -7 65 -16z"/>
<path d="M860 295 l0 -155 30 0 c30 0 30 1 30 55 l0 55 75 0 75 0 0 -55 c0
-52 1 -55 25 -55 l25 0 0 155 0 155 -25 0 c-23 0 -24 -3 -27 -72 l-3 -73 -72
-3 -73 -3 0 76 0 75 -30 0 -30 0 0 -155z"/>
</g>
</svg>
