<?xml version="1.0" standalone="no"?>
<!DOCTYPE svg PUBLIC "-//W3C//DTD SVG 20010904//EN"
 "http://www.w3.org/TR/2001/REC-SVG-20010904/DTD/svg10.dtd">
<svg version="1.0" xmlns="http://www.w3.org/2000/svg"
 width="277.000000pt" height="54.000000pt" viewBox="0 0 277.000000 54.000000"
 preserveAspectRatio="xMidYMid meet">

<g transform="translate(0.000000,54.000000) scale(0.100000,-0.100000)"
fill="#000000" stroke="none">
<path d="M20 265 l0 -265 630 0 630 0 0 265 0 265 -630 0 -630 0 0 -265z m620
0 l0 -235 -295 0 -295 0 0 235 0 235 295 0 295 0 0 -235z m620 0 l0 -235 -300
0 -300 0 0 235 0 235 300 0 300 0 0 -235z"/>
<path d="M210 255 l0 -155 30 0 c29 0 30 2 30 45 0 45 0 45 35 45 29 0 38 -6
65 -45 25 -36 37 -45 60 -45 17 0 30 3 30 6 0 3 -14 25 -31 49 l-32 44 27 23
c19 16 29 36 32 63 10 85 -44 125 -168 125 l-78 0 0 -155z m168 89 c14 -10 22
-26 22 -44 0 -38 -32 -60 -87 -60 l-43 0 0 60 0 60 43 0 c23 0 53 -7 65 -16z"/>
<path d="M830 255 l0 -155 30 0 c30 0 30 1 30 55 l0 55 75 0 75 0 0 -55 c0
-52 1 -55 25 -55 l25 0 0 155 0 155 -25 0 c-23 0 -24 -3 -27 -72 l-3 -73 -72
-3 -73 -3 0 76 0 75 -30 0 -30 0 0 -155z"/>
<path d="M1430 420 c0 -80 3 -100 14 -100 9 0 16 12 18 28 5 41 46 42 73 2 11
-16 28 -30 38 -30 22 0 22 6 -2 37 -20 24 -20 24 0 44 25 25 24 74 -1 99 -16
16 -33 20 -80 20 l-60 0 0 -100z m118 33 c3 -27 -1 -33 -22 -39 -45 -11 -61
-2 -64 39 l-3 38 43 -3 c40 -3 43 -5 46 -35z"/>
<path d="M1720 420 l0 -100 75 0 c59 0 75 3 75 15 0 10 -15 15 -57 17 -51 3
-58 6 -61 25 -3 20 2 22 44 25 65 4 70 26 7 30 -44 3 -48 5 -51 31 -3 27 -2
27 52 27 43 0 56 3 56 15 0 12 -14 15 -70 15 l-70 0 0 -100z"/>
<path d="M2000 420 c0 -82 3 -100 15 -100 12 0 15 13 15 58 l0 57 35 -40 34
-40 25 30 c14 17 25 34 26 38 0 5 5 5 10 2 6 -3 10 -28 10 -56 0 -37 4 -49 15
-49 12 0 15 18 15 100 0 56 -4 100 -9 100 -6 0 -27 -25 -48 -55 -21 -30 -41
-55 -45 -55 -4 0 -24 25 -45 55 -21 30 -41 55 -45 55 -5 0 -8 -45 -8 -100z"/>
<path d="M2355 457 c22 -41 35 -77 35 -100 0 -30 4 -37 20 -37 17 0 20 7 20
43 0 24 4 47 8 53 5 5 21 30 36 57 26 45 26 47 7 47 -14 0 -27 -13 -41 -40
-11 -22 -25 -40 -30 -40 -5 0 -19 18 -30 40 -14 27 -27 40 -41 40 -18 0 -17
-5 16 -63z"/>
<path d="M1697 263 c150 -2 396 -2 545 0 150 1 28 2 -272 2 -300 0 -422 -1
-273 -2z"/>
<path d="M1794 211 c-36 -16 -64 -60 -64 -103 0 -57 42 -98 102 -98 24 0 53 7
64 15 49 34 55 122 11 163 -26 24 -83 35 -113 23z m88 -48 c24 -22 24 -77 -2
-103 -62 -62 -154 35 -95 100 22 24 71 26 97 3z"/>
<path d="M1430 110 c0 -80 3 -100 14 -100 10 0 16 13 18 37 l3 38 50 0 50 0 3
-38 c2 -24 8 -37 18 -37 11 0 14 20 14 100 0 82 -3 100 -15 100 -11 0 -15 -12
-15 -45 l0 -45 -55 0 -55 0 0 45 c0 33 -4 45 -15 45 -12 0 -15 -18 -15 -100z"/>
<path d="M2060 195 c0 -10 10 -15 30 -15 l30 0 0 -85 c0 -78 2 -85 20 -85 18
0 20 7 20 85 l0 85 30 0 c20 0 30 5 30 15 0 12 -16 15 -80 15 -64 0 -80 -3
-80 -15z"/>
<path d="M2350 110 l0 -100 70 0 c56 0 70 3 70 15 0 12 -13 15 -55 15 -52 0
-55 1 -55 25 0 23 4 25 45 25 33 0 45 4 45 15 0 11 -12 15 -45 15 -43 0 -45 1
-45 30 0 30 1 30 55 30 42 0 55 3 55 15 0 12 -14 15 -70 15 l-70 0 0 -100z"/>
<path d="M2620 110 l0 -100 70 0 c56 0 70 3 70 15 0 11 -12 15 -50 15 l-50 0
0 85 c0 78 -2 85 -20 85 -19 0 -20 -7 -20 -100z"/>
</g>
</svg>
