<svg width="1341" height="388" xmlns="http://www.w3.org/2000/svg" preserveAspectRatio="xMidYMid meet" version="1.0">

 <g>
  <title>Layer 1</title>
  <g id="svg_1" fill="#000000" transform="translate(0 388) scale(0.1 -0.1)">
   <path fill="#ffffff" id="svg_2" d="m8943,3819c-18,-5 -33,-14 -33,-19c0,-6 -7,-10 -15,-10c-8,0 -15,-7 -15,-15c0,-8 -4,-15 -8,-15c-12,0 -43,-76 -49,-120c-3,-21 0,-54 6,-73c11,-32 9,-40 -11,-74c-13,-21 -60,-111 -104,-200c-43,-89 -82,-162 -85,-163c-17,-1 -14,75 4,111c28,56 32,109 13,166c-47,141 -186,172 -252,57c-18,-31 -27,-84 -16,-97c5,-7 12,-27 16,-45c7,-39 61,-112 82,-112c8,0 14,-4 14,-10c0,-5 6,-10 13,-10c29,0 30,-338 2,-410c-8,-19 -16,-44 -18,-55c-2,-15 -11,-4 -33,40c-41,81 -67,125 -76,125c-5,0 -8,5 -8,10c0,16 -129,147 -180,184c-45,33 -95,60 -160,89c-40,17 -159,47 -188,47c-12,0 -52,31 -94,73c-68,69 -127,113 -190,146c-15,8 -30,22 -34,33c-3,10 -10,18 -15,18c-5,0 -9,4 -9,10c0,11 -98,110 -109,110c-5,0 -11,6 -14,13c-8,20 -166,95 -248,117c-100,26 -275,27 -379,1c-127,-31 -250,-99 -336,-185c-53,-53 -144,-185 -144,-209c0,-7 -6,-22 -14,-32c-13,-18 -14,-18 -57,2c-62,29 -165,53 -231,53c-95,0 -242,-37 -343,-86c-122,-60 -234,-169 -302,-295l-18,-35l3,137c4,111 1,147 -13,191c-38,116 -108,209 -220,294c-77,59 -197,105 -320,123c-155,23 -292,60 -404,108c-32,13 -37,13 -60,-5c-14,-10 -28,-27 -29,-37c-4,-16 24,-83 39,-95c3,-3 14,-23 24,-45c10,-22 26,-58 35,-80c10,-22 28,-69 41,-105c12,-36 26,-69 31,-74c4,-6 8,-16 8,-24c0,-28 91,-196 140,-257c28,-35 74,-83 103,-107c29,-24 54,-46 55,-50c2,-5 10,-8 18,-8c8,0 14,-4 14,-8c0,-5 10,-14 23,-21c12,-6 36,-20 52,-31c34,-21 148,-79 212,-107c40,-17 56,-33 32,-33c-10,0 -83,-35 -138,-65c-23,-13 -28,-10 -97,60c-88,87 -165,140 -316,216c-133,67 -346,93 -519,64c-107,-18 -226,-51 -235,-66c-3,-5 -12,-9 -21,-9c-9,0 -37,-13 -62,-28c-67,-41 -77,-43 -103,-20c-28,24 -154,108 -163,108c-4,0 -21,6 -38,14c-75,32 -94,38 -166,51c-127,25 -234,17 -326,-22c-181,-78 -300,-260 -322,-490c-3,-34 -10,-60 -14,-57c-31,19 -70,178 -76,312c-5,93 -5,94 24,125c57,61 67,87 67,163c0,62 -3,76 -27,107c-30,40 -73,54 -130,43c-42,-8 -69,-36 -98,-100c-27,-62 -21,-118 21,-193c20,-36 30,-66 30,-95c0,-42 0,-43 -15,-18c-8,14 -20,35 -26,48c-7,12 -16,22 -21,22c-4,0 -8,5 -8,10c0,6 -45,71 -101,145l-100,134l-3,64c-3,94 -56,171 -136,197c-50,17 -106,-4 -137,-50c-30,-44 -29,-95 3,-156c36,-68 113,-123 173,-124c15,0 61,-46 61,-61c0,-5 4,-9 9,-9c4,0 21,-19 37,-42c16,-24 32,-44 37,-46c4,-2 7,-10 7,-18c0,-8 4,-14 8,-14c7,0 33,-38 108,-155l19,-29l-30,16c-17,9 -47,24 -68,34c-21,9 -37,23 -37,33c0,19 -64,90 -103,115c-19,12 -50,18 -94,18c-62,0 -66,-1 -99,-37c-113,-124 70,-295 253,-234c28,9 40,7 80,-13c27,-13 50,-25 53,-28c3,-3 25,-18 49,-35c59,-40 152,-135 173,-177c25,-51 74,-159 88,-196c10,-25 10,-35 0,-47c-7,-8 -17,-15 -23,-15c-13,0 -95,-67 -126,-103c-31,-36 -65,-88 -74,-110c-11,-28 -36,-32 -106,-14c-36,9 -94,19 -128,22l-63,7l0,71c0,126 -42,337 -83,410c-98,181 -258,317 -492,422c-71,32 -98,44 -185,79c-47,19 -121,53 -165,75c-110,57 -155,53 -155,-11c0,-24 28,-78 51,-98c7,-7 92,-185 114,-240c52,-131 123,-279 145,-300c3,-3 18,-23 35,-45c62,-85 191,-199 318,-283c26,-18 52,-32 56,-32c5,0 11,-7 15,-15c4,-12 0,-14 -17,-11c-12,3 -38,7 -57,10c-20,4 -47,15 -60,26c-14,10 -56,41 -95,69c-38,28 -75,55 -82,61c-7,5 -15,10 -18,10c-3,0 -24,12 -48,27c-55,35 -140,79 -202,105c-27,11 -63,26 -80,33c-68,29 -137,47 -162,42c-15,-3 -37,2 -50,10c-13,9 -56,18 -95,21c-63,4 -71,3 -65,-12c4,-10 1,-16 -9,-16c-24,0 16,-36 49,-44c15,-4 25,-11 22,-16c-3,-5 0,-7 8,-4c8,3 17,-2 20,-10c4,-9 14,-16 24,-15c11,0 13,3 6,6c-7,2 -13,9 -13,14c0,4 7,5 17,2c12,-5 14,-3 8,7c-5,9 -4,11 3,6c7,-4 12,-2 12,4c0,7 7,10 15,7c8,-4 17,-2 20,3c4,6 1,10 -4,10c-6,0 -11,4 -11,8c0,4 9,8 20,8c24,0 24,-1 3,-37c-19,-32 -36,-40 -26,-11c6,15 5,16 -11,2c-11,-8 -14,-16 -7,-18c6,-2 11,-10 11,-17c0,-8 21,-17 53,-23c105,-20 278,-96 402,-177l70,-45l-45,5c-43,6 -117,19 -285,51c-44,8 -102,21 -130,29c-27,8 -68,17 -90,20l-40,7l35,-19c33,-17 155,-70 230,-99c19,-7 62,-21 95,-30c33,-9 80,-23 104,-30c25,-8 54,-14 66,-14c11,0 26,-5 33,-12c21,-21 -87,-39 -255,-45c-137,-4 -159,-3 -213,16c-173,60 -312,153 -466,311l-83,85l71,3c40,2 78,8 85,14c9,7 13,7 13,0c0,-13 35,-20 125,-27c105,-7 112,-2 59,47c-30,27 -41,44 -33,49c18,11 -29,18 -226,34c-99,8 -196,19 -215,25c-51,15 -117,15 -135,0c-15,-12 -22,-80 -7,-80c4,0 19,-10 32,-22c60,-54 129,-108 137,-108c5,0 24,-16 43,-35l33,-34l27,19c23,16 30,17 39,6c8,-10 6,-18 -10,-32c-22,-19 -22,-19 -10,3c15,29 14,37 -3,21c-8,-7 -12,-16 -9,-20c2,-5 -1,-8 -7,-8c-14,0 0,-17 74,-91c57,-58 79,-69 91,-49c4,6 12,5 21,-4c18,-19 18,-27 -1,-20c-11,5 -13,2 -9,-10c8,-20 111,-96 131,-96c7,0 13,-3 13,-8c0,-4 24,-18 53,-31c28,-12 60,-27 71,-33c54,-28 166,-48 278,-48c141,0 242,18 470,85c63,19 92,22 157,18c44,-3 78,-10 75,-14c-3,-5 -26,-15 -52,-23c-49,-15 -103,-38 -137,-58c-11,-7 -42,-26 -70,-42c-27,-17 -103,-70 -167,-118c-64,-48 -122,-88 -128,-88c-5,0 -10,-3 -10,-7c0,-9 -37,-32 -135,-83c-68,-36 -70,-38 -70,-76c0,-48 3,-49 195,-64c80,-6 175,-15 212,-21c136,-19 364,-3 468,32c84,28 185,82 249,134c46,37 161,154 161,163c0,6 7,12 15,16c11,4 15,-2 15,-27c0,-78 74,-266 127,-324c13,-13 23,-27 23,-30c0,-3 8,-12 17,-19c29,-20 10,-25 -53,-12c-81,16 -314,16 -399,0c-110,-21 -215,-59 -280,-102c-16,-11 -37,-23 -45,-27c-8,-3 -17,-9 -20,-12c-3,-3 -25,-20 -50,-36c-53,-36 -280,-256 -280,-272c0,-6 -4,-13 -9,-15c-5,-1 -47,-52 -93,-113c-94,-125 -109,-142 -195,-234c-49,-52 -62,-73 -63,-98c0,-46 50,-68 98,-44c47,24 95,41 115,41c12,1 33,7 47,15c14,8 36,14 49,15c13,0 47,6 75,14c28,8 87,22 131,31c44,9 114,23 155,32c41,8 93,21 115,29c23,8 47,14 54,14c7,0 27,6 44,14c18,7 52,21 77,31c69,27 173,78 188,93c7,6 17,12 22,12c16,0 246,163 275,195c19,21 153,135 158,135c3,0 8,-30 12,-68c11,-113 69,-284 113,-330c6,-7 12,-17 12,-22c0,-12 138,-150 150,-150c5,0 15,-6 22,-13c16,-15 75,-39 149,-61c76,-22 272,-22 348,0c79,23 129,44 185,78c43,26 49,27 58,13c12,-23 116,-101 158,-120c152,-67 327,-65 527,7c86,32 201,102 248,152c15,16 38,24 80,29c129,14 266,90 365,202c50,57 129,186 137,226c4,22 8,25 19,16c19,-16 18,-163 -1,-243c-24,-99 -48,-166 -59,-166c-18,0 -106,-64 -106,-77c0,-7 -4,-13 -9,-13c-12,0 -41,-81 -41,-117c0,-126 132,-177 223,-87c20,20 39,49 42,65c4,16 11,31 16,34c13,8 11,102 -2,127c-15,28 9,138 28,131c7,-3 13,-14 13,-25c0,-11 5,-29 12,-41c6,-12 15,-35 19,-52c4,-16 15,-50 24,-74c15,-41 15,-49 1,-92c-29,-87 -14,-170 41,-229c30,-33 36,-35 95,-35c75,0 101,20 120,89c19,70 -4,145 -60,201c-25,25 -51,45 -58,45c-19,0 -43,51 -78,170c-8,25 -19,60 -24,77c-10,31 -9,32 9,23c10,-6 19,-15 19,-20c0,-6 4,-10 9,-10c21,0 81,-65 81,-87c0,-32 32,-92 67,-124c73,-69 151,-78 207,-26c66,63 58,141 -24,218c-52,49 -116,71 -176,62c-23,-4 -39,1 -59,19c-119,101 -219,243 -228,326l-6,54l39,-41c22,-23 42,-41 44,-41c6,0 63,-49 136,-116c98,-91 147,-125 245,-173c187,-91 448,-134 683,-112c127,12 234,32 305,57c49,18 82,18 120,-2c62,-32 70,-36 116,-50c129,-40 234,-54 395,-54c159,0 236,12 341,51c54,20 160,72 178,87c16,14 17,8 17,-109c1,-73 7,-148 15,-184c8,-33 18,-114 22,-179c5,-98 10,-123 25,-138c22,-22 63,-20 63,2c0,8 9,16 19,18c11,2 33,18 51,36c47,47 153,126 183,137c15,5 35,23 44,39c9,17 29,35 44,41c26,9 74,53 74,66c0,4 -8,15 -17,25c-16,17 -15,20 17,53c19,20 40,33 46,31c11,-4 17,12 31,91c3,18 8,33 11,33c3,0 23,-12 45,-27c38,-26 39,-26 69,-9c29,18 31,18 57,-1c14,-11 34,-36 44,-56c15,-29 25,-37 45,-37c61,0 103,-14 135,-44c35,-33 92,-76 102,-76c3,0 22,-11 43,-24c20,-12 48,-26 62,-31c14,-4 39,-13 55,-20c148,-63 366,-61 505,4c47,21 109,68 141,106c26,29 28,29 46,12c11,-9 24,-17 29,-17c6,0 15,-5 22,-12c12,-12 49,-27 151,-59c54,-18 82,-20 195,-16c139,5 197,17 291,63c64,32 170,132 200,191c11,21 23,40 26,43c9,7 36,72 59,140c37,112 50,327 23,396c-3,8 0,14 5,14c30,0 78,-170 87,-315l7,-90l-32,-35c-50,-55 -70,-103 -70,-164c0,-100 47,-156 133,-156c54,0 87,24 118,84c30,60 24,154 -13,211c-22,35 -43,126 -28,125c3,-1 41,-54 85,-120c44,-66 83,-120 88,-120c4,0 7,-7 7,-15c0,-8 4,-15 8,-15c4,0 24,-22 45,-50c32,-43 37,-57 37,-104c0,-67 25,-124 74,-171c37,-35 57,-40 130,-35c46,3 96,63 96,116c0,41 -33,114 -66,148c-31,30 -106,66 -139,66c-16,0 -30,11 -44,33c-11,18 -32,46 -46,62c-14,17 -38,48 -53,70c-15,22 -30,41 -34,43c-5,2 -8,10 -8,17c0,7 -3,15 -7,17c-10,4 -53,65 -53,73c0,4 -7,14 -16,23c-22,21 -2,28 28,9c13,-8 35,-17 49,-21c17,-3 29,-15 33,-29c9,-38 75,-105 123,-127c75,-33 132,-24 185,30c40,41 32,123 -19,175c-63,64 -146,87 -223,59l-51,-18l-62,33c-117,64 -222,156 -256,226l-19,39l39,38c21,21 39,42 39,47c0,5 3,11 8,13c11,5 52,66 52,79c0,6 6,23 14,37c25,50 46,127 46,172c0,72 6,76 87,57c37,-9 94,-19 126,-23l57,-5l0,-72c0,-87 26,-251 52,-332c48,-149 150,-273 313,-382c106,-71 141,-90 290,-153c28,-12 58,-26 67,-31c10,-5 23,-9 29,-9c6,0 67,-27 134,-60c155,-76 195,-77 195,-8c0,24 -27,77 -50,98c-8,7 -94,184 -116,240c-10,25 -29,60 -41,79c-13,19 -23,44 -23,56c0,20 -17,58 -61,135c-8,14 -16,27 -19,30c-3,3 -18,23 -35,45c-41,56 -128,141 -205,201c-68,53 -157,114 -166,114c-3,0 -12,7 -21,15c-13,14 -10,15 29,9c58,-8 92,-19 114,-38c11,-8 51,-38 89,-65c39,-28 75,-55 82,-61c7,-5 15,-10 18,-10c3,0 24,-12 48,-27c54,-35 190,-102 227,-113c20,-6 30,-5 33,3c2,7 15,1 32,-15c28,-28 78,-38 90,-18c4,6 15,8 26,5c11,-4 19,-2 19,4c0,16 19,13 37,-4c8,-8 18,-13 22,-10c5,2 16,-4 26,-15c10,-11 14,-20 9,-20c-5,0 4,-7 20,-15c32,-17 148,-18 180,-2c13,6 16,6 12,-2c-4,-6 -2,-11 3,-11c6,0 11,6 11,14c0,17 27,29 43,19c9,-5 9,-3 0,8c-11,14 -13,19 -13,38c0,13 -54,28 -126,36c-57,6 -61,5 -59,-14c1,-11 5,-24 10,-28c4,-5 5,-2 1,4c-13,23 1,13 18,-12c15,-23 15,-24 -1,-18c-11,4 -14,3 -9,-5c4,-7 2,-12 -3,-12c-6,0 -11,7 -11,15c0,7 -6,18 -14,22c-8,4 -16,15 -18,23c-4,18 -64,46 -126,59c-43,8 -81,20 -137,42c-56,22 -195,91 -228,113c-21,14 -40,26 -43,26c-3,0 -18,9 -32,21l-27,21l40,-6c116,-19 226,-39 277,-52c32,-8 68,-14 82,-14c13,0 41,-6 62,-14c22,-7 57,-16 79,-20l40,-7l-30,18c-27,17 -131,62 -225,99c-19,7 -62,21 -95,30c-33,9 -80,23 -104,30c-25,8 -54,14 -66,14c-11,0 -26,5 -33,12c-21,21 87,39 255,45c138,4 158,3 215,-17c73,-25 166,-68 190,-88c23,-19 68,-23 61,-6c-3,8 -2,14 2,14c11,0 29,-23 43,-54c10,-22 15,-26 26,-17c10,8 16,9 21,1c3,-5 1,-10 -5,-10c-10,0 23,-40 84,-102c16,-16 38,-28 50,-27c38,3 46,-1 39,-18c-6,-15 -7,-15 -14,3c-4,10 -8,13 -8,6c-1,-8 -6,-10 -13,-6c-7,4 -2,-7 11,-24c12,-18 31,-37 42,-42c42,-23 19,-32 -73,-29c-51,2 -94,0 -95,-5c-1,-5 -6,-12 -13,-16c-6,-4 -13,-15 -14,-26c-2,-10 -14,-22 -27,-25c-13,-4 -18,-7 -12,-8c7,-1 12,-6 10,-12c-2,-13 6,-14 163,-24c63,-4 144,-13 180,-21c85,-19 150,-20 161,-3c5,8 9,28 8,44c0,25 -11,38 -63,79c-35,26 -123,106 -196,177c-74,70 -137,126 -141,123c-4,-2 -18,9 -31,25c-25,31 -138,111 -157,111c-6,0 -11,3 -11,8c0,4 -24,18 -52,31c-29,12 -61,27 -72,33c-10,5 -53,19 -95,30c-64,17 -98,19 -216,15c-77,-2 -162,-10 -190,-16c-120,-30 -175,-45 -247,-66c-63,-19 -92,-22 -157,-18c-44,3 -78,10 -75,14c3,5 27,15 53,23c44,13 67,23 111,48c8,4 25,12 37,18c36,15 100,59 225,152c64,49 122,88 128,88c5,0 10,4 10,9c0,5 9,13 20,16c11,3 26,12 32,18c7,7 45,28 83,48c69,35 70,36 70,74c0,49 -2,50 -195,65c-80,7 -174,16 -210,21c-138,18 -366,3 -470,-32c-56,-19 -197,-90 -219,-110c-11,-10 -23,-19 -27,-19c-11,0 -177,-174 -204,-213c-26,-38 -50,-48 -50,-21c0,56 -124,206 -217,263l-53,33l1,66c2,103 10,127 39,125c14,-1 99,-10 190,-19c245,-25 411,-5 570,69c62,29 182,105 238,150c64,52 232,228 277,290c27,37 52,67 57,67c4,0 8,6 8,14c0,8 4,16 8,18c4,2 21,21 37,43c42,55 61,78 135,157c76,83 82,94 63,131c-11,22 -20,27 -51,27c-21,0 -43,-5 -49,-11c-6,-6 -26,-14 -44,-19c-19,-4 -47,-13 -64,-19c-16,-5 -57,-17 -90,-25c-33,-8 -80,-20 -105,-26c-24,-7 -71,-16 -104,-21c-45,-6 -66,-15 -90,-38c-37,-36 -96,-53 -96,-28c0,32 -13,30 -163,-15c-37,-11 -70,-24 -73,-29c-3,-5 -13,-9 -22,-9c-45,-1 -402,-207 -402,-231c0,-5 -7,-9 -15,-9c-8,0 -15,-4 -15,-8c0,-5 -19,-22 -42,-39c-24,-17 -79,-65 -122,-107c-44,-41 -83,-73 -87,-70c-4,2 -10,19 -14,37c-14,70 -79,181 -143,245c-35,34 -67,62 -72,62c-5,0 -15,6 -22,13c-43,42 -178,72 -284,64c-170,-13 -303,-63 -438,-163l-59,-44l-31,19c-92,57 -193,96 -327,126c-87,19 -291,17 -369,-5c-125,-34 -289,-119 -415,-216c-27,-20 -35,-23 -35,-11c0,9 7,22 15,31c8,8 15,18 15,22c0,13 106,131 149,165c23,19 50,40 58,48c10,9 38,13 93,12c61,-1 86,3 117,19c54,28 88,67 106,120c13,39 13,50 1,79c-8,18 -14,35 -14,36c0,2 -15,13 -34,24c-49,31 -110,28 -168,-9c-49,-31 -98,-95 -98,-129c0,-19 -51,-65 -97,-90c-27,-14 -28,-9 -8,27c8,15 37,74 65,132c106,219 117,235 159,243c48,10 117,84 135,146c9,29 13,65 9,80c-9,39 -34,73 -49,67c-7,-3 -16,4 -19,15c-4,10 -12,19 -18,19c-7,0 -21,2 -32,4c-11,3 -35,0 -52,-5zm-4426,-190c15,-6 53,-15 83,-19c246,-38 358,-78 446,-158c48,-44 114,-125 114,-139c0,-6 7,-24 15,-39c11,-21 15,-63 15,-156c0,-165 -8,-188 -45,-125c-21,37 -97,139 -135,181c-55,61 -223,226 -231,226c-13,0 -11,-6 5,-22c15,-16 99,-136 109,-158c4,-8 21,-37 37,-65c17,-27 49,-88 71,-135c22,-47 44,-93 50,-102c12,-24 11,-28 -4,-28c-29,0 -236,120 -245,142c-2,4 -8,8 -12,8c-12,0 -110,98 -110,109c0,5 -6,11 -13,14c-7,2 -22,24 -35,48c-13,24 -27,51 -32,59c-16,27 -70,150 -70,160c0,5 -6,24 -14,42c-8,18 -22,53 -31,78c-9,25 -21,53 -26,62c-5,10 -9,20 -9,23c0,9 37,5 67,-6zm2609,-9c107,-36 167,-73 242,-147c39,-40 72,-78 72,-85c0,-7 33,-33 74,-57c41,-24 91,-58 112,-77c22,-18 42,-34 47,-34c4,0 7,-4 7,-9c0,-6 12,-23 26,-38c14,-15 30,-37 35,-48c5,-11 13,-27 18,-35c34,-58 45,-105 44,-209c0,-134 -24,-208 -103,-328c-35,-53 -53,-64 -63,-40c-3,7 -34,35 -68,62l-64,49l-2,94c-7,240 -125,413 -333,487c-74,27 -343,28 -404,2c-21,-10 -45,-17 -53,-17c-8,0 -29,-6 -46,-14c-18,-7 -52,-22 -77,-32c-53,-22 -162,-84 -172,-98c-3,-5 -26,-10 -50,-10l-43,-1l2,69c2,39 10,93 19,120c21,67 57,146 66,146c5,0 8,6 8,14c0,14 82,103 130,141c40,32 130,76 195,95c89,27 301,27 381,0zm-1041,-388c122,-36 133,-51 119,-156c-7,-52 -4,-48 -103,-80c-96,-31 -174,-103 -225,-206c-21,-42 -56,-200 -56,-252c0,-21 -4,-38 -8,-38c-4,0 -21,-20 -36,-45c-16,-25 -32,-45 -36,-45c-4,0 -11,-8 -14,-17c-3,-10 -12,-27 -19,-38c-74,-119 -86,-143 -140,-280c-17,-44 -45,-155 -49,-195l-3,-25l-24,27c-27,31 -36,46 -85,146c-20,40 -36,78 -36,85c0,7 -4,17 -9,22c-5,6 -19,48 -31,95c-31,118 -32,349 -2,460c44,161 129,318 217,398c26,23 50,42 56,42c5,0 9,4 9,8c0,14 127,72 198,92c88,24 201,25 277,2zm6119,-87c-4,-8 -10,-15 -15,-15c-5,0 -9,-7 -9,-15c0,-8 -4,-15 -8,-15c-5,0 -30,-29 -56,-65c-26,-36 -53,-71 -60,-78c-6,-7 -29,-35 -51,-62c-124,-157 -320,-310 -468,-367c-110,-42 -339,-62 -461,-40l-39,7l44,18c24,10 62,26 84,34c49,20 168,78 215,105c19,11 57,32 83,47c26,14 56,31 65,36c9,6 44,25 77,44c33,19 62,38 65,41c3,4 12,10 20,14c8,3 2,4 -15,0c-16,-3 -43,-12 -59,-20c-16,-8 -36,-14 -46,-14c-9,0 -21,-5 -27,-11c-6,-6 -26,-14 -44,-19c-41,-10 -97,-29 -122,-42c-10,-5 -37,-13 -60,-18c-23,-5 -73,-18 -112,-30c-38,-12 -86,-25 -105,-29c-19,-4 -45,-13 -57,-19c-51,-28 -56,-11 -9,33c27,25 52,45 57,45c5,0 9,4 9,8c0,9 135,109 220,164c49,31 183,98 235,118c62,23 94,33 125,39c19,5 53,13 75,19c22,5 76,18 120,27c189,38 232,48 270,60c55,17 65,17 59,0zm-5022,-74c137,-65 210,-206 207,-396c-1,-33 -4,-73 -8,-90c-7,-30 -7,-29 -36,30c-34,72 -140,215 -159,215c-3,0 -20,14 -38,30c-52,48 -187,110 -265,121c-74,11 -227,4 -270,-12c-30,-11 -73,-4 -73,11c0,8 79,49 155,80c33,13 138,40 175,44c19,2 83,2 142,0c93,-3 115,-7 170,-33zm768,5c98,-31 172,-76 245,-150c52,-53 115,-129 115,-140c0,-4 10,-23 23,-44c61,-98 94,-265 76,-378l-11,-72l-57,76c-55,74 -147,162 -170,162c-6,0 -11,3 -11,8c0,6 -25,20 -120,66c-14,7 -53,21 -87,32c-35,10 -63,24 -63,30c0,6 7,31 15,54c10,28 15,81 15,155c0,74 -5,127 -15,155c-24,68 -24,67 45,46zm-4710,-153c80,-18 212,-81 265,-127l40,-35l-79,-1c-173,0 -355,-60 -453,-148c-21,-18 -45,-39 -53,-45c-23,-18 -110,-132 -110,-144c0,-6 -4,-13 -9,-15c-5,-1 -25,-37 -44,-79c-32,-68 -39,-77 -66,-81l-31,-5l0,161c0,176 13,245 64,341c33,62 66,97 131,139c102,66 185,75 345,39zm7141,17c82,-16 139,-47 204,-114c63,-65 83,-98 109,-185c18,-61 32,-284 22,-352c-6,-42 -8,-45 -34,-41c-26,3 -38,20 -66,92c-4,8 -15,29 -26,45c-11,17 -23,37 -27,45c-18,41 -154,190 -173,190c-4,0 -10,3 -12,8c-6,13 -62,47 -108,66c-25,10 -56,23 -70,28c-45,19 -173,38 -252,38l-78,0l20,20c11,11 25,20 30,20c6,0 10,3 10,8c0,11 103,70 163,93c32,12 188,47 218,48c9,1 40,-4 70,-9zm-3980,-36c60,-17 139,-55 139,-66c0,-5 6,-8 14,-8c8,0 16,-5 18,-12c3,-7 -18,-20 -51,-31c-79,-27 -162,-95 -199,-166c-68,-126 -78,-368 -27,-595c9,-38 14,-70 12,-73c-5,-5 -145,102 -175,134c-32,35 -102,131 -102,141c0,4 -5,13 -12,20c-29,29 -78,218 -78,304c0,79 25,171 63,230c70,108 253,164 398,122zm-2054,-33c173,-44 298,-114 421,-238l63,-64l-59,-72c-84,-103 -134,-218 -151,-347l-6,-45l-25,29c-109,129 -218,219 -341,279c-47,24 -81,48 -94,68c-32,49 -156,143 -248,188c-47,22 -92,41 -100,41c-32,0 -106,32 -101,44c6,14 70,49 148,78c151,58 353,73 493,39zm5090,0c87,-21 210,-66 234,-87c8,-8 21,-14 27,-14c7,0 12,-6 12,-14c0,-12 -71,-46 -97,-46c-13,0 -57,-18 -131,-54c-75,-36 -92,-47 -92,-57c0,-5 -5,-9 -11,-9c-12,0 -139,-124 -140,-137c0,-4 -32,-23 -72,-42c-72,-35 -129,-70 -135,-83c-2,-5 -8,-8 -14,-8c-14,0 -198,-182 -198,-196c0,-7 -6,-14 -13,-17c-18,-7 -92,-157 -118,-242c-18,-57 -22,-94 -22,-200c0,-142 13,-201 72,-328l30,-65l-15,-58c-42,-158 -56,-372 -32,-487c10,-45 19,-63 41,-79c38,-27 44,-17 17,27c-12,20 -19,39 -16,42c9,9 19,-4 56,-69c27,-49 29,-59 16,-64c-8,-3 -25,1 -38,10c-33,24 -40,20 -23,-14c19,-37 19,-50 0,-50c-23,0 -125,71 -125,87c0,7 -8,17 -17,20c-54,20 -201,180 -232,254c-6,13 -15,31 -19,39c-27,46 -35,69 -54,139c-22,85 -20,122 11,201c12,30 30,92 41,136c11,49 31,100 50,127c16,25 30,48 30,52c0,3 7,13 15,21c21,22 21,364 0,444c-20,75 -19,95 11,157c27,58 44,139 44,215c0,26 5,60 12,75c14,32 160,183 177,183c6,0 11,4 11,9c0,5 21,22 46,38c26,15 58,36 73,45c49,31 139,71 231,102c67,22 259,21 357,-3zm-2566,-5c36,-7 74,-18 85,-24c10,-6 26,-13 34,-16c52,-20 183,-138 213,-193c60,-109 84,-174 98,-265c31,-204 -69,-432 -221,-505c-81,-39 -210,-66 -210,-44c0,6 12,23 28,40c15,16 35,47 46,68c10,21 22,46 27,55c46,91 65,343 33,449c-38,130 -131,265 -221,320c-18,11 -33,25 -33,31c0,6 -14,27 -30,48l-31,39l28,4c56,8 89,7 154,-7zm-5646,-16c11,-5 61,-25 110,-46c129,-52 150,-63 245,-123c145,-92 253,-211 292,-321c19,-51 48,-190 48,-226c0,-34 -11,-30 -50,18c-63,76 -112,131 -154,174c-22,22 -61,63 -86,91c-25,27 -51,52 -58,57c-16,10 -16,-9 1,-26c6,-7 21,-31 32,-53c11,-22 22,-42 25,-45c8,-7 80,-130 80,-136c0,-6 42,-67 51,-74c4,-3 10,-15 13,-28c7,-22 5,-21 -41,9c-26,17 -69,44 -95,61c-27,16 -48,34 -48,39c0,5 -5,9 -11,9c-13,0 -199,183 -199,195c0,5 -7,16 -15,25c-19,21 -105,195 -105,212c0,8 -7,23 -15,34c-8,10 -15,24 -15,30c0,9 -27,73 -58,137c-4,7 17,2 53,-13zm5485,-190c22,-11 40,-25 40,-30c0,-6 6,-10 13,-10c30,-1 141,-200 121,-219c-2,-2 -19,6 -37,19c-27,20 -44,24 -102,24c-80,0 -115,-15 -178,-79c-63,-63 -147,-206 -147,-249c0,-9 -6,-16 -14,-16c-19,0 -31,178 -22,303c10,128 45,199 126,253c47,31 143,33 200,4zm-3077,-31c226,-40 373,-124 463,-266c43,-67 62,-117 83,-230c15,-73 15,-90 4,-86c-7,3 -13,8 -13,12c0,9 -98,111 -107,111c-5,1 -24,14 -43,30c-19,17 -40,30 -47,30c-7,0 -13,5 -13,10c0,6 -3,9 -7,8c-5,-2 -28,7 -53,18c-97,46 -166,58 -330,57c-154,0 -278,-20 -339,-52c-15,-9 -37,-9 -86,0c-51,10 -80,10 -137,-1c-40,-7 -80,-16 -89,-21c-9,-4 -19,-6 -22,-3c-7,8 14,66 30,82c7,7 13,18 13,24c0,13 108,148 118,148c4,0 21,12 38,28c79,72 258,125 397,117c43,-2 106,-9 140,-16zm6477,-3c30,-7 82,-26 115,-41c95,-45 139,-82 228,-195c20,-25 78,-142 73,-147c-2,-3 -13,0 -23,5c-42,23 -170,36 -233,24c-43,-8 -69,-8 -88,-1c-160,62 -418,73 -588,25c-70,-19 -160,-63 -209,-99c-47,-36 -145,-137 -145,-149c0,-5 -4,-7 -9,-3c-6,3 -8,13 -7,23c2,9 7,42 11,72c20,149 107,289 235,377c155,106 446,156 640,109zm-4918,-136c-2,-82 2,-164 9,-197c6,-32 14,-76 16,-99c4,-38 3,-42 -26,-54c-17,-7 -31,-16 -31,-21c0,-5 -5,-9 -10,-9c-12,0 -98,-85 -117,-116c-16,-25 -46,-88 -69,-144c-27,-64 -27,-290 0,-375c23,-73 42,-121 62,-157c19,-36 13,-35 -23,1c-114,116 -196,264 -249,451c-29,100 -27,381 3,465c25,71 60,138 85,165c10,10 18,22 18,25c0,10 78,78 125,110c64,43 168,91 200,94c6,1 9,-50 7,-139zm2773,19c69,-26 165,-79 165,-91c0,-5 5,-8 10,-8c29,0 169,-183 170,-221c0,-8 7,-23 15,-33c8,-11 15,-29 15,-40c0,-12 7,-40 15,-63c19,-54 31,-324 17,-374c-12,-43 -140,-241 -207,-319c-201,-234 -474,-273 -795,-114l-55,27l55,18c172,53 327,184 411,347c45,86 79,226 79,322c-1,117 -39,263 -100,374c-16,31 -30,60 -30,64c0,4 16,25 35,47c19,22 42,54 51,71l17,30l51,-13c28,-7 65,-18 81,-24zm-349,-159c44,-69 85,-158 105,-230c27,-92 26,-247 -1,-325c-28,-83 -52,-135 -62,-135c-4,0 -8,-6 -8,-14c0,-24 -120,-145 -182,-183c-73,-45 -109,-59 -208,-78c-219,-44 -475,16 -698,162c-56,37 -232,202 -232,218c0,5 -7,17 -17,27c-23,26 -14,29 27,10c63,-30 134,-50 220,-62c47,-7 105,-16 130,-22c25,-5 64,-12 87,-15c41,-5 42,-5 49,32c9,50 38,45 42,-8c4,-44 11,-46 122,-18c112,27 185,67 260,141c105,106 156,227 166,395c6,88 12,119 30,155c13,25 24,50 24,55c0,6 5,16 11,22c14,14 91,-59 135,-127zm-1713,-130c35,-78 88,-153 152,-217c48,-47 67,-76 85,-125c13,-35 34,-80 47,-100c13,-21 23,-40 23,-44c0,-34 227,-259 290,-287c8,-4 29,-16 45,-27c40,-25 173,-90 186,-90c6,0 19,-5 31,-11c19,-10 19,-11 1,-28c-10,-9 -25,-20 -33,-24c-8,-4 -28,-16 -45,-27c-128,-82 -313,-140 -447,-140c-65,0 -182,22 -216,40c-9,5 -24,11 -32,14c-95,36 -241,183 -300,303c-66,132 -82,253 -55,413c13,79 19,102 49,185c16,43 98,203 131,255l28,44l20,-44c11,-25 29,-65 40,-90zm914,71c28,-42 51,-98 44,-107c-11,-17 -76,-44 -121,-52c-47,-9 -140,10 -140,29c0,5 -7,9 -16,9c-13,0 -12,7 7,40c31,55 77,97 124,113c47,17 76,8 102,-32zm-2509,-48c15,-10 40,-29 55,-43c53,-47 107,-100 107,-104c0,-3 14,-20 30,-38c71,-77 140,-270 140,-388c0,-54 -22,-169 -43,-225c-23,-63 -50,-115 -59,-115c-4,0 -8,-5 -8,-11c0,-18 -89,-97 -133,-117c-92,-42 -150,-53 -314,-59c-90,-3 -163,-3 -163,0c0,4 31,26 69,51c162,106 250,254 280,471c6,44 18,121 26,170c22,139 15,322 -16,403c-10,27 -7,27 29,5zm4828,-5c-31,-104 -31,-394 -1,-492c8,-27 15,-69 15,-94c0,-90 65,-253 127,-321c18,-20 33,-39 33,-42c0,-8 121,-103 153,-119c56,-28 30,-33 -135,-27c-318,12 -433,85 -521,332c-30,83 -32,307 -3,375c42,101 61,140 68,140c5,0 8,5 8,11c0,26 122,161 204,226c49,38 61,41 52,11zm-5176,-21c0,-5 -11,-18 -25,-29c-29,-22 -32,-43 -9,-52c27,-10 34,-7 46,22c9,22 12,24 15,9c3,-10 -3,-28 -13,-39c-18,-19 -18,-20 1,-34c143,-102 201,-277 166,-496c-27,-159 -156,-299 -353,-377c-40,-16 -76,-27 -81,-24c-5,3 -5,8 -1,12c9,6 30,49 53,105c39,95 51,276 26,401c-25,132 -49,174 -93,167c-23,-3 -34,3 -56,29c-26,31 -28,41 -11,81c5,12 -5,23 -42,44c-26,15 -75,52 -107,81c-33,29 -65,53 -73,53c-7,0 -13,6 -13,14c0,35 290,32 408,-3l62,-19l0,22c0,23 23,50 50,58c17,5 50,-12 50,-25zm6022,-15c29,-4 45,-11 40,-17c-13,-19 -157,-130 -192,-149c-211,-112 -281,-519 -139,-798c11,-22 19,-42 17,-44c-5,-4 -76,20 -113,40c-16,9 -36,16 -42,16c-7,0 -13,3 -13,8c0,4 -14,13 -31,21c-17,7 -41,23 -54,35c-12,11 -34,30 -46,42c-54,47 -90,104 -124,194c-28,72 -25,256 5,343c12,37 27,67 31,67c5,0 9,7 9,15c0,24 111,128 170,158c61,32 157,64 210,70c58,6 222,6 272,-1zm2107,-20l124,-17l-36,-28c-19,-15 -40,-27 -46,-27c-6,0 -11,-4 -11,-9c0,-5 -20,-22 -45,-38c-25,-15 -45,-31 -45,-35c0,-5 -7,-8 -15,-8c-8,0 -15,-4 -15,-9c0,-15 -183,-124 -250,-149c-115,-43 -347,-88 -415,-80l-30,3l40,19c72,33 149,73 205,105c30,18 69,38 87,46c34,16 52,35 32,35c-15,0 -103,-26 -194,-57c-38,-14 -79,-27 -90,-30c-11,-2 -29,-9 -40,-13c-63,-28 -95,-38 -95,-30c0,4 15,26 33,47c133,160 273,244 457,273c41,7 80,14 85,15c26,8 152,2 264,-13zm-8919,-34c59,-13 100,-29 100,-37c0,-4 -24,-13 -52,-20c-29,-8 -69,-22 -88,-32c-41,-20 -100,-73 -100,-88c0,-6 -4,-11 -8,-11c-5,0 -19,-24 -31,-52c-17,-39 -24,-77 -27,-143c-2,-57 -12,-112 -25,-150c-11,-33 -23,-87 -26,-120l-5,-61l56,-43c31,-24 56,-47 56,-52c0,-13 -12,-11 -34,6c-17,13 -22,12 -48,-2c-25,-15 -27,-21 -22,-53c10,-54 -2,-33 -36,64c-27,75 -56,132 -80,156c-8,8 -37,72 -57,125c-27,75 -25,253 4,315c47,99 171,192 281,209c49,8 66,7 142,-11zm7273,-3c63,-18 154,-88 197,-150c79,-115 78,-269 -4,-437c-38,-78 -100,-168 -115,-168c-5,0 -12,37 -16,83c-4,45 -13,98 -20,117c-28,77 -37,120 -32,140c8,32 -11,138 -33,187c-23,50 -92,121 -140,145c-19,10 -60,24 -90,31c-51,13 -53,15 -31,27c76,40 196,51 284,25zm-7761,-82c-47,-72 -62,-111 -73,-193c-19,-134 18,-303 91,-415c11,-16 23,-37 27,-45c3,-8 11,-18 16,-21c5,-4 4,-30 -2,-64c-6,-32 -11,-76 -11,-97c0,-21 -3,-38 -7,-38c-15,0 -83,34 -83,42c0,4 -7,8 -15,8c-18,0 -111,92 -148,146c-15,23 -39,72 -52,109c-21,58 -25,86 -25,185c0,83 5,131 17,166c19,57 51,114 64,114c5,0 9,5 9,10c0,13 24,36 75,75c60,45 109,70 148,74c4,1 -10,-25 -31,-56zm8106,24c23,-12 42,-25 42,-29c0,-5 5,-8 10,-8c12,0 98,-85 117,-116c49,-78 56,-106 57,-244c1,-117 -2,-142 -21,-192c-51,-130 -117,-209 -232,-275c-31,-18 -61,-33 -67,-33c-7,0 -13,36 -17,97c-6,98 -6,98 27,148c18,27 39,68 48,90c9,22 24,60 34,85c15,35 19,70 19,175c0,141 -11,189 -65,270c-46,70 -45,68 -19,60c13,-3 43,-16 67,-28zm-4204,-52c52,-26 195,-27 244,-1c19,10 36,16 38,14c6,-6 -31,-74 -62,-115c-15,-20 -28,-48 -28,-62c-1,-21 -7,-27 -31,-31c-26,-5 -30,-9 -31,-40c0,-25 -5,-36 -17,-38c-14,-3 -17,5 -17,48l0,52l-37,-6c-35,-6 -140,7 -152,19c-2,3 1,42 9,88c12,79 27,117 39,100c3,-4 23,-17 45,-28zm-1303,-12c14,-38 70,-147 78,-153c3,-3 12,-17 20,-32c8,-15 22,-37 33,-47c10,-11 18,-23 18,-26c0,-3 12,-19 28,-36c39,-43 62,-89 62,-124c0,-30 20,-101 46,-160c7,-16 15,-37 18,-45c15,-41 102,-153 162,-212c161,-155 371,-227 581,-198c48,6 96,14 105,16c13,4 22,-5 34,-33c53,-120 89,-180 141,-233l34,-35l-58,-16c-213,-60 -539,-46 -748,32c-53,20 -160,73 -173,86c-7,7 -17,13 -21,13c-5,0 -38,29 -75,64c-36,34 -88,80 -114,101c-67,54 -232,226 -232,242c0,7 -4,13 -9,13c-6,0 -16,11 -23,24c-93,174 -111,219 -128,328c-14,87 -2,199 28,266c22,49 77,124 103,142c12,8 31,23 43,32c29,24 35,22 47,-9zm-1839,-53c31,-11 63,-17 71,-14c9,3 37,-20 75,-62c52,-56 60,-69 51,-85c-9,-19 -11,-18 -45,8c-37,28 -56,26 -78,-10c-8,-12 -5,-22 12,-40c12,-13 22,-26 22,-30c0,-18 -19,-2 -74,59c-49,55 -58,69 -48,84c9,16 5,18 -45,23c-30,3 -78,3 -107,1c-47,-5 -145,-32 -156,-44c-3,-3 -11,-6 -17,-7c-48,-10 57,96 117,119c62,23 153,22 222,-2zm6760,-4c49,-22 118,-83 118,-106c0,-5 -28,3 -62,17c-54,22 -78,26 -173,26c-93,0 -117,-3 -155,-21c-52,-26 -78,-42 -98,-60c-72,-65 -66,-8 7,71c25,27 89,62 156,85c56,19 148,14 207,-12zm-82,-96c0,-14 -7,-20 -24,-20c-13,0 -29,-7 -36,-15c-24,-29 -4,-42 72,-49c94,-10 103,-17 75,-64c-33,-58 -42,-61 -137,-56c-91,5 -107,8 -158,31c-32,15 -32,16 -13,32c11,10 39,26 63,36c49,22 58,31 58,63c0,31 35,62 70,62c23,0 30,-4 30,-20zm-8002,-67c-10,-2 -18,-9 -18,-14c0,-5 -7,-9 -15,-9c-9,0 -46,-16 -83,-37c-37,-20 -89,-48 -117,-62c-27,-14 -56,-32 -63,-38c-7,-7 -19,-13 -26,-13c-8,0 -20,-7 -27,-17c-13,-14 -11,-16 11,-11c35,8 129,34 170,49c38,13 71,25 173,62c37,14 67,22 67,19c0,-23 -100,-128 -179,-190c-154,-121 -397,-175 -623,-138c-54,9 -112,16 -130,16l-33,1l35,29c19,16 41,30 48,30c6,0 12,4 12,9c0,5 20,22 45,38c25,15 45,31 45,36c0,4 6,7 14,7c8,0 16,4 18,8c3,8 83,65 123,89c105,60 228,102 375,127c77,12 220,20 178,9zm1343,-38c54,-27 71,-46 58,-62c-6,-7 -17,-13 -25,-13c-7,0 -17,-8 -22,-17c-7,-12 -22,-16 -51,-15c-24,1 -41,-3 -41,-9c0,-7 11,-9 25,-6c16,3 24,0 22,-7c-7,-22 -45,-18 -62,8c-10,14 -37,32 -63,41c-60,20 -128,70 -110,81c45,28 213,27 269,-1zm-300,-141c45,-28 50,-29 43,-9c-11,27 20,16 37,-13c23,-41 107,-60 200,-44c64,11 146,44 160,65c4,5 12,8 18,6c13,-5 -49,-101 -87,-137c-70,-66 -190,-89 -267,-52c-47,23 -59,24 -84,8c-15,-9 -23,-9 -35,1c-18,15 -22,51 -5,51c5,0 8,-4 5,-8c-9,-14 12,-35 28,-29c14,5 15,11 6,27c-6,11 -15,20 -20,20c-6,0 -10,6 -10,14c0,21 -23,25 -37,7c-11,-14 -12,-13 -13,6c0,12 4,25 10,28c6,4 4,17 -5,35c-8,16 -15,41 -15,55c0,25 1,25 17,10c9,-9 33,-28 54,-41zm7163,19c-8,-47 -64,-133 -107,-165c-78,-59 -171,-73 -251,-37c-63,27 -136,100 -163,162c-15,33 -13,33 35,3c46,-29 138,-56 189,-56c88,1 195,42 264,101c19,16 35,29 37,29c2,0 0,-17 -4,-37zm-6999,-19c48,-58 37,-72 -12,-15c-25,30 -42,41 -54,38c-19,-5 -25,4 -12,16c16,17 44,3 78,-39zm9659,-63c3,-4 3,-11 0,-14c-8,-8 -34,3 -34,14c0,11 27,12 34,0zm-64,-26c0,-12 -19,-12 -23,0c-4,9 -1,12 9,8c7,-3 14,-7 14,-8zm35,5c3,-5 -1,-10 -9,-10c-9,0 -16,5 -16,10c0,6 4,10 9,10c6,0 13,-4 16,-10zm-9881,-68c28,-82 112,-141 233,-164c50,-9 69,-8 119,7c66,19 126,48 162,79c39,33 72,70 72,81c0,5 4,4 9,-3c13,-22 -40,-202 -61,-202c-4,0 -8,-6 -8,-14c0,-21 -88,-96 -140,-118c-67,-29 -239,-30 -295,0c-82,42 -125,108 -136,212c-6,53 -12,68 -34,88c-30,26 -28,40 3,23c27,-14 32,-14 32,4c0,8 5,15 11,15c6,0 8,9 4,20c-3,11 -2,20 4,20c5,0 17,-22 25,-48zm8729,-65c26,-16 47,-34 47,-38c0,-5 5,-9 11,-9c15,0 199,-183 199,-197c0,-6 6,-15 13,-21c21,-18 95,-175 152,-322c9,-25 24,-57 32,-72c15,-30 12,-31 -42,-8c-11,5 -45,19 -75,31c-51,20 -69,27 -160,68c-67,30 -225,140 -278,193c-96,96 -137,174 -166,320c-18,86 -20,131 -7,126c4,-1 41,-41 81,-87c39,-47 91,-104 113,-127c23,-23 62,-64 87,-91c25,-27 51,-52 58,-57c16,-9 16,9 -1,26c-6,7 -21,31 -32,53c-11,22 -22,42 -25,45c-8,7 -80,130 -80,136c0,6 -42,67 -51,74c-4,3 -10,15 -13,28c-7,21 -5,21 41,-9c26,-17 69,-45 96,-62zm-7012,-9c51,-79 167,-205 236,-258c22,-17 33,-33 33,-50c-1,-29 -23,-120 -42,-170c-23,-62 -99,-174 -155,-226c-70,-66 -213,-138 -213,-106c0,4 4,12 10,18c5,5 15,34 21,64c6,30 15,73 20,95c19,92 2,294 -37,431c-19,69 -18,83 12,140c15,27 33,70 41,97c7,26 15,47 17,47c2,0 28,-37 57,-82zm5084,-36c28,-16 81,-38 119,-48c66,-17 71,-17 140,0c84,21 152,62 205,122c21,24 42,44 46,44c16,0 -3,-195 -22,-230c-27,-49 -65,-88 -109,-112c-55,-30 -237,-30 -304,0c-106,48 -184,162 -205,302l-7,45l43,-46c24,-26 67,-60 94,-77zm-2834,-103c63,-8 97,-19 139,-43c30,-18 91,-49 135,-70c44,-21 88,-42 97,-47c10,-5 24,-9 33,-9c8,0 29,-6 47,-14c46,-19 193,-46 253,-46c58,1 192,30 250,55c51,22 165,96 165,108c0,4 4,5 10,2c16,-10 -88,-184 -160,-269c-66,-77 -155,-156 -208,-186c-15,-8 -29,-18 -32,-21c-12,-13 -139,-70 -190,-84c-172,-48 -439,-39 -620,22c-157,52 -300,170 -359,296c-31,66 -39,107 -22,107c18,0 170,75 206,103c5,4 39,29 75,57c36,27 72,49 81,49c9,1 54,-4 100,-10zm-4126,-53c22,-17 64,-56 95,-86c63,-63 82,-75 158,-101c69,-24 209,-25 307,-3c166,37 181,39 225,32c25,-4 117,-12 204,-17c87,-6 164,-15 170,-21c7,-7 6,-10 -2,-10c-6,0 -19,-14 -27,-31c-24,-45 -164,-180 -227,-217c-30,-18 -86,-45 -124,-59c-63,-24 -82,-26 -219,-27c-129,0 -160,3 -219,22c-74,24 -162,65 -187,88c-8,8 -19,14 -23,14c-14,0 -105,105 -130,150c-42,77 -66,166 -66,242c0,76 -2,76 65,24zm7629,-161c-45,-149 -151,-264 -304,-328c-101,-42 -154,-51 -295,-52c-122,0 -149,3 -210,24c-38,13 -83,32 -100,43c-16,10 -37,21 -45,25c-60,27 -230,198 -230,232c0,6 -4,11 -10,11c-5,0 -7,6 -5,13c4,8 43,13 133,16c70,2 161,8 202,15c58,9 87,9 130,-1c140,-31 182,-37 278,-40c157,-6 232,24 347,141c28,28 66,64 85,79l35,28l3,-73c2,-49 -3,-93 -14,-133zm2240,157c3,-5 -8,-9 -25,-10c-16,0 -27,4 -24,9c8,11 42,12 49,1zm-8211,-135c22,-118 22,-272 1,-346c-18,-62 -45,-131 -56,-146c-5,-5 -18,-23 -29,-38c-29,-38 -112,-98 -182,-131c-110,-52 -179,-67 -301,-67c-106,0 -117,2 -177,30c-64,30 -144,94 -137,109c2,5 23,35 47,68c35,47 59,66 114,94c88,44 226,172 295,274c27,40 53,82 56,92c4,15 27,24 88,39c83,19 206,73 228,101c25,29 36,13 53,-79zm4330,73c44,-35 139,-76 221,-96c58,-14 81,-24 87,-39c22,-49 109,-167 168,-226c60,-59 146,-124 212,-157c29,-15 57,-36 63,-47c6,-10 23,-33 38,-50c16,-16 28,-37 28,-46c0,-17 -63,-79 -80,-79c-5,0 -10,-4 -10,-8c0,-5 -24,-18 -53,-30c-74,-31 -264,-32 -352,-2c-169,58 -285,138 -330,227c-11,21 -35,62 -53,91c-27,41 -33,58 -27,80c4,15 8,79 10,142c2,63 8,131 14,150c6,19 11,49 11,66c0,49 13,55 53,24zm-6541,-37c9,-10 8,-13 -8,-13c-24,0 -164,-59 -244,-103c-30,-17 -80,-43 -110,-59c-30,-16 -68,-38 -85,-48c-16,-11 -39,-24 -50,-30c-11,-5 -29,-16 -40,-22c-10,-7 -37,-23 -58,-36c-21,-13 -36,-26 -33,-29c5,-6 114,35 130,49c6,4 19,8 29,8c10,0 31,6 45,14c34,17 87,35 132,46c19,5 67,18 105,30c39,12 86,25 105,30c19,5 57,15 84,24c27,9 51,15 53,13c4,-4 -45,-49 -112,-101c-27,-22 -51,-43 -53,-48c-2,-4 -10,-8 -18,-8c-8,0 -14,-4 -14,-8c0,-22 -265,-170 -385,-215c-78,-29 -222,-66 -355,-92c-47,-9 -110,-23 -140,-30c-93,-24 -122,-26 -113,-11c23,37 108,146 115,146c4,0 8,7 8,15c0,8 4,15 8,15c5,0 24,21 43,48c41,57 155,173 224,228c28,21 52,42 53,47c2,4 8,7 13,7c9,0 65,36 79,50c3,3 21,12 40,21c137,64 214,79 392,76c102,-1 151,-6 160,-14zm365,-39c16,-5 24,-16 29,-43c4,-20 10,-40 14,-46c4,-5 11,-21 15,-35c19,-64 119,-188 202,-250c121,-91 284,-141 463,-144c81,0 126,-5 123,-11c-4,-11 -75,-63 -113,-83c-77,-41 -145,-56 -260,-56c-183,0 -275,39 -382,162c-16,18 -28,34 -28,37c0,3 -11,22 -23,43c-34,54 -64,155 -76,252c-9,82 -5,180 8,180c3,0 16,-3 28,-6zm8001,-65c12,-208 -73,-415 -213,-521c-75,-57 -166,-81 -305,-81c-93,-1 -126,3 -170,20c-78,30 -161,75 -167,90c-3,7 -11,13 -18,13c-7,0 -16,7 -19,16c-5,14 2,15 57,9c201,-20 458,64 598,196c44,42 99,113 99,128c0,6 4,11 8,11c9,0 52,97 52,117c0,23 23,62 39,66c31,8 36,0 39,-64zm-2582,-298c-4,-91 -9,-184 -12,-206c-5,-37 -5,-38 9,-20c8,11 17,31 20,45c3,14 17,64 30,113c14,48 28,119 32,157c4,39 10,72 14,74c4,3 18,-12 31,-32c14,-20 27,-39 30,-42c9,-9 40,-75 55,-119c20,-57 19,-86 -3,-146c-41,-113 -72,-150 -207,-240c-55,-36 -101,-71 -103,-76c-2,-5 -10,-9 -18,-9c-10,0 -14,12 -14,38c0,21 -7,65 -16,97c-24,90 -24,276 0,340c18,47 75,139 120,196c34,42 40,13 32,-170z"/>
   <path fill="#ffffff" id="svg_3" d="m3892,2218c-29,-29 -2,-60 29,-32c14,13 16,20 8,31c-14,16 -22,16 -37,1z"/>
   <path fill="#ffffff" id="svg_4" d="m3633,1964c-7,-19 34,-64 59,-64c10,0 18,7 18,15c0,8 -4,15 -10,15c-5,0 -10,5 -10,11c0,12 -29,38 -43,39c-4,0 -10,-7 -14,-16z"/>
   <path fill="#ffffff" id="svg_5" d="m2906,1384c-8,-31 -3,-39 19,-31c19,8 20,31 1,46c-11,9 -15,6 -20,-15z"/>
   <path fill="#ffffff" id="svg_6" d="m3450,1868c0,-17 31,-48 47,-48c6,0 16,7 23,15c17,20 5,33 -38,41c-24,5 -32,3 -32,-8z"/>
   <path fill="#ffffff" id="svg_7" d="m12915,1260c-3,-5 -1,-10 4,-10c6,0 11,5 11,10c0,6 -2,10 -4,10c-3,0 -8,-4 -11,-10z"/>
   <path fill="#ffffff" id="svg_8" d="m12553,1248c-25,-33 -24,-38 6,-38c17,0 31,5 31,10c0,6 -7,10 -16,10c-10,0 -14,6 -10,15c7,18 2,19 -11,3z"/>
   <path fill="#ffffff" id="svg_9" d="m12515,1240c-3,-5 -1,-10 4,-10c6,0 11,5 11,10c0,6 -2,10 -4,10c-3,0 -8,-4 -11,-10z"/>
   <path fill="#ffffff" id="svg_10" d="m8606,531c-7,-11 37,-41 60,-41c15,0 14,4 -6,25c-24,26 -45,32 -54,16z"/>
   <path fill="#ffffff" id="svg_11" d="m8415,410c-3,-5 -1,-10 4,-10c6,0 11,5 11,10c0,6 -2,10 -4,10c-3,0 -8,-4 -11,-10z"/>
  </g>
 </g>
</svg>