<svg width="132" height="63" xmlns="http://www.w3.org/2000/svg" preserveAspectRatio="xMidYMid meet" version="1.0">

 <g>
  <title>Layer 1</title>
  <g id="svg_1" fill="#000000" transform="translate(0.000000,63.000000) scale(0.100000,-0.100000)">
   <path fill="#ffffff" id="svg_2" d="m55,305l0,-260l628,0l627,0l0,260l0,260l-628,0l-627,0l0,-260zm615,-5l0,-240l-297,2l-298,3l-3,238l-2,237l300,0l300,0l0,-240zm618,3l-3,-238l-295,0l-295,0l-3,238l-2,237l300,0l300,0l-2,-237z"/>
   <path fill="#ffffff" id="svg_3" d="m240,295l0,-155l30,0c29,0 30,2 30,45c0,45 0,45 35,45c29,0 38,-6 65,-45c25,-36 37,-45 60,-45c17,0 30,3 30,6c0,3 -14,25 -31,49l-32,44l27,23c19,16 29,36 32,63c10,85 -44,125 -168,125l-78,0l0,-155zm168,89c14,-10 22,-26 22,-44c0,-38 -32,-60 -87,-60l-43,0l0,60l0,60l43,0c23,0 53,-7 65,-16z"/>
   <path fill="#ffffff" id="svg_4" d="m860,295l0,-155l30,0c30,0 30,1 30,55l0,55l75,0l75,0l0,-55c0,-52 1,-55 25,-55l25,0l0,155l0,155l-25,0c-23,0 -24,-3 -27,-72l-3,-73l-72,-3l-73,-3l0,76l0,75l-30,0l-30,0l0,-155z"/>
  </g>
 </g>
</svg>